<svg width="18" height="16" viewBox="0 0 18 16" fill="none" xmlns="http://www.w3.org/2000/svg">
<path d="M11.5552 5.97225C11.9778 5.97225 12.3832 6.13387 12.6821 6.42157C12.981 6.70927 13.1489 7.09947 13.1489 7.50634V11.767C13.1489 12.7618 12.7384 13.7158 12.0076 14.4192C11.2769 15.1225 10.2858 15.5177 9.25237 15.5177C8.21894 15.5177 7.22784 15.1225 6.4971 14.4192C5.76636 13.7158 5.35583 12.7618 5.35583 11.767V7.50634C5.35583 7.09947 5.52374 6.70927 5.82263 6.42157C6.12151 6.13387 6.52689 5.97225 6.94958 5.97225H11.5552ZM11.5552 6.99497H6.94958C6.80868 6.99497 6.67356 7.04885 6.57393 7.14475C6.4743 7.24065 6.41833 7.37071 6.41833 7.50634V11.767C6.41833 12.4905 6.71691 13.1844 7.2484 13.696C7.77988 14.2076 8.50073 14.495 9.25237 14.495C10.004 14.495 10.7249 14.2076 11.2563 13.696C11.7878 13.1844 12.0864 12.4905 12.0864 11.767V7.50634C12.0864 7.37071 12.0304 7.24065 11.9308 7.14475C11.8312 7.04885 11.6961 6.99497 11.5552 6.99497ZM2.34399 5.97225H5.28783C5.00336 6.25719 4.80351 6.61038 4.70912 6.99497H2.34399C2.2031 6.99497 2.06797 7.04885 1.96834 7.14475C1.86872 7.24065 1.81274 7.37071 1.81274 7.50634V11.0852C1.81247 11.4274 1.90137 11.7641 2.07131 12.0647C2.24125 12.3652 2.48681 12.6199 2.78548 12.8054C3.08416 12.991 3.42643 13.1014 3.78093 13.1267C4.13544 13.1519 4.49086 13.0912 4.81466 12.95C4.90887 13.2841 5.04416 13.6018 5.21416 13.8991C4.72887 14.1032 4.19839 14.1877 3.67064 14.145C3.1429 14.1023 2.63453 13.9337 2.19147 13.6544C1.74842 13.3751 1.38464 12.994 1.13301 12.5454C0.881376 12.0968 0.749827 11.595 0.750245 11.0852V7.50634C0.750245 7.09947 0.918158 6.70927 1.21704 6.42157C1.51593 6.13387 1.92131 5.97225 2.34399 5.97225ZM16.1565 5.97225C16.5792 5.97225 16.9846 6.13387 17.2834 6.42157C17.5823 6.70927 17.7502 7.09947 17.7502 7.50634V11.0859C17.7505 11.5953 17.6189 12.0968 17.3674 12.545C17.1159 12.9933 16.7525 13.3742 16.3098 13.6534C15.8671 13.9326 15.3592 14.1013 14.8318 14.1443C14.3045 14.1874 13.7743 14.1033 13.2892 13.8997L13.3288 13.8302C13.4804 13.5534 13.603 13.2595 13.6908 12.9513C14.0144 13.0915 14.3694 13.1514 14.7232 13.1256C15.0771 13.0998 15.4186 12.9891 15.7166 12.8036C16.0147 12.6181 16.2597 12.3638 16.4293 12.0637C16.5989 11.7637 16.6878 11.4275 16.6877 11.0859V7.50634C16.6877 7.37083 16.6319 7.24087 16.5324 7.14499C16.4329 7.04911 16.298 6.99515 16.1572 6.99497H13.7963C13.7017 6.6103 13.5016 6.25711 13.2169 5.97225H16.1565ZM9.25024 0.5177C9.57581 0.5177 9.89819 0.579425 10.199 0.699351C10.4998 0.819277 10.7731 0.995056 11.0033 1.21665C11.2335 1.43824 11.4161 1.70131 11.5407 1.99084C11.6653 2.28037 11.7294 2.59068 11.7294 2.90406C11.7294 3.21745 11.6653 3.52776 11.5407 3.81729C11.4161 4.10681 11.2335 4.36988 11.0033 4.59148C10.7731 4.81307 10.4998 4.98885 10.199 5.10878C9.89819 5.2287 9.57581 5.29043 9.25024 5.29043C8.59273 5.29043 7.96214 5.03901 7.49721 4.59148C7.03227 4.14395 6.77108 3.53697 6.77108 2.90406C6.77108 2.27116 7.03227 1.66418 7.49721 1.21665C7.96214 0.76912 8.59273 0.5177 9.25024 0.5177ZM14.919 1.19952C15.1981 1.19952 15.4744 1.25243 15.7322 1.35522C15.9901 1.45801 16.2243 1.60868 16.4216 1.79862C16.619 1.98856 16.7755 2.21405 16.8823 2.46221C16.9891 2.71038 17.044 2.97636 17.044 3.24497C17.044 3.51359 16.9891 3.77957 16.8823 4.02773C16.7755 4.2759 16.619 4.50139 16.4216 4.69133C16.2243 4.88127 15.9901 5.03193 15.7322 5.13473C15.4744 5.23752 15.1981 5.29043 14.919 5.29043C14.3555 5.29043 13.8149 5.07492 13.4164 4.69133C13.0179 4.30773 12.794 3.78746 12.794 3.24497C12.794 2.70248 13.0179 2.18222 13.4164 1.79862C13.8149 1.41502 14.3555 1.19952 14.919 1.19952ZM3.58145 1.19952C3.86051 1.19952 4.13684 1.25243 4.39466 1.35522C4.65247 1.45801 4.88673 1.60868 5.08405 1.79862C5.28138 1.98856 5.43791 2.21405 5.5447 2.46221C5.65149 2.71038 5.70645 2.97636 5.70645 3.24497C5.70645 3.51359 5.65149 3.77957 5.5447 4.02773C5.43791 4.2759 5.28138 4.50139 5.08405 4.69133C4.88673 4.88127 4.65247 5.03193 4.39466 5.13473C4.13684 5.23752 3.86051 5.29043 3.58145 5.29043C3.01787 5.29043 2.47737 5.07492 2.07885 4.69133C1.68034 4.30773 1.45645 3.78746 1.45645 3.24497C1.45645 2.70248 1.68034 2.18222 2.07885 1.79862C2.47737 1.41502 3.01787 1.19952 3.58145 1.19952ZM9.25024 1.54043C8.87452 1.54043 8.51419 1.6841 8.24851 1.93983C7.98283 2.19556 7.83358 2.5424 7.83358 2.90406C7.83358 3.26572 7.98283 3.61257 8.24851 3.8683C8.51419 4.12403 8.87452 4.2677 9.25024 4.2677C9.62597 4.2677 9.9863 4.12403 10.252 3.8683C10.5177 3.61257 10.6669 3.26572 10.6669 2.90406C10.6669 2.5424 10.5177 2.19556 10.252 1.93983C9.9863 1.6841 9.62597 1.54043 9.25024 1.54043ZM14.919 2.22225C14.7795 2.22225 14.6413 2.2487 14.5124 2.3001C14.3835 2.35149 14.2664 2.42683 14.1677 2.5218C14.0691 2.61676 13.9908 2.72951 13.9374 2.85359C13.884 2.97768 13.8565 3.11067 13.8565 3.24497C13.8565 3.37928 13.884 3.51227 13.9374 3.63635C13.9908 3.76044 14.0691 3.87318 14.1677 3.96815C14.2664 4.06312 14.3835 4.13845 14.5124 4.18985C14.6413 4.24125 14.7795 4.2677 14.919 4.2677C15.2008 4.2677 15.4711 4.15995 15.6703 3.96815C15.8696 3.77635 15.9815 3.51622 15.9815 3.24497C15.9815 2.97373 15.8696 2.71359 15.6703 2.5218C15.4711 2.33 15.2008 2.22225 14.919 2.22225ZM3.58145 2.22225C3.44192 2.22225 3.30376 2.2487 3.17485 2.3001C3.04594 2.35149 2.92881 2.42683 2.83015 2.5218C2.73149 2.61676 2.65323 2.72951 2.59983 2.85359C2.54644 2.97768 2.51895 3.11067 2.51895 3.24497C2.51895 3.37928 2.54644 3.51227 2.59983 3.63635C2.65323 3.76044 2.73149 3.87318 2.83015 3.96815C2.92881 4.06312 3.04594 4.13845 3.17485 4.18985C3.30376 4.24125 3.44192 4.2677 3.58145 4.2677C3.86325 4.2677 4.1335 4.15995 4.33275 3.96815C4.53201 3.77635 4.64395 3.51622 4.64395 3.24497C4.64395 2.97373 4.53201 2.71359 4.33275 2.5218C4.1335 2.33 3.86325 2.22225 3.58145 2.22225Z" fill="#555555"/>
</svg>
