<svg width="13" height="11" viewBox="0 0 13 11" fill="none" xmlns="http://www.w3.org/2000/svg">
<path d="M6.78629 10.3674C6.71419 10.2952 6.6737 10.1974 6.6737 10.0953C6.6737 9.99331 6.71419 9.89546 6.78629 9.82327L10.7486 5.86036L0.385059 5.86036C0.282951 5.86036 0.185025 5.8198 0.112824 5.7476C0.0406227 5.6754 6.10352e-05 5.57747 6.10352e-05 5.47536C6.10352e-05 5.37326 0.0406227 5.27533 0.112824 5.20313C0.185025 5.13093 0.282951 5.09037 0.385059 5.09037L10.7486 5.09037L6.78629 1.12746C6.71828 1.05447 6.68126 0.957942 6.68302 0.858202C6.68478 0.758461 6.72519 0.663297 6.79572 0.592759C6.86626 0.522221 6.96143 0.481816 7.06117 0.480056C7.16091 0.478296 7.25744 0.515319 7.33042 0.583325L11.9504 5.2033C12.0225 5.27549 12.063 5.37334 12.063 5.47536C12.063 5.57739 12.0225 5.67524 11.9504 5.74743L7.33042 10.3674C7.25823 10.4395 7.16038 10.48 7.05835 10.48C6.95633 10.48 6.85848 10.4395 6.78629 10.3674Z" fill="#FFE5E8"/>
</svg>
