<svg width="21" height="22" viewBox="0 0 21 22" fill="none" xmlns="http://www.w3.org/2000/svg">
<path d="M5.13477 1L6.04702 2.10024" stroke="black" stroke-width="0.5" stroke-linecap="round" stroke-linejoin="round"/>
<path d="M6.04702 1L5.13477 2.10024" stroke="black" stroke-width="0.5" stroke-linecap="round" stroke-linejoin="round"/>
<path d="M4.9437 6.13731C5.13414 6.13731 5.28852 5.95112 5.28852 5.72143C5.28852 5.49175 5.13414 5.30556 4.9437 5.30556C4.75326 5.30556 4.59888 5.49175 4.59888 5.72143C4.59888 5.95112 4.75326 6.13731 4.9437 6.13731Z" fill="black"/>
<path d="M17.5228 12.3613C17.7132 12.3613 17.8676 12.1751 17.8676 11.9454C17.8676 11.7157 17.7132 11.5295 17.5228 11.5295C17.3324 11.5295 17.178 11.7157 17.178 11.9454C17.178 12.1751 17.3324 12.3613 17.5228 12.3613Z" fill="black"/>
<path d="M13.6545 10.4605V14.677" stroke="black" stroke-width="0.5" stroke-linecap="round" stroke-linejoin="round"/>
<path d="M4.22703 17.888H1.47407C1.28911 17.8934 1.10996 17.81 0.975982 17.6561C0.842 17.5022 0.764144 17.2905 0.759521 17.0674V9.76028C0.764145 9.53725 0.841983 9.32555 0.975938 9.1717C1.10989 9.01784 1.28901 8.93441 1.47394 8.93972H11.6929" stroke="black" stroke-width="0.5" stroke-linecap="round" stroke-linejoin="round"/>
<path d="M0.750244 10.5405L13.6475 10.4854" stroke="black" stroke-width="0.5" stroke-linecap="round" stroke-linejoin="round"/>
<path d="M13.6544 12.8311L0.75708 12.8862" stroke="black" stroke-width="0.5" stroke-linecap="round" stroke-linejoin="round"/>
<path d="M2.05396 15.2039L4.31167 15.1933" stroke="black" stroke-width="0.5" stroke-linecap="round" stroke-linejoin="round"/>
<path d="M2.05762 16.3699L5.60547 16.3548" stroke="black" stroke-width="0.5" stroke-linecap="round" stroke-linejoin="round"/>
<path d="M6.23608 17.7883V17.4393C6.23608 17.0425 6.36679 16.6619 6.59946 16.3813C6.83212 16.1007 7.14768 15.943 7.47672 15.943H9.46144C9.46144 15.943 10.1065 13.998 12.3643 14.387C14.3841 14.735 14.3388 15.3945 16.1543 15.5295" stroke="black" stroke-width="0.5" stroke-linecap="round" stroke-linejoin="round"/>
<path d="M11.3967 17.11L9.78403 17.888H2.88749C2.74911 17.888 2.61639 17.9543 2.51854 18.0724C2.42069 18.1904 2.36572 18.3504 2.36572 18.5173C2.36572 18.6672 2.41008 18.8122 2.49082 18.9261C2.57155 19.0401 2.68336 19.1155 2.80611 19.1389L8.49389 20.222L13.3319 19.055L16.2002 19.9985" stroke="black" stroke-width="0.5" stroke-linecap="round" stroke-linejoin="round"/>
<path d="M17.5249 16.721C17.7031 16.721 17.8475 16.5469 17.8475 16.3321C17.8475 16.1172 17.7031 15.9431 17.5249 15.9431C17.3468 15.9431 17.2024 16.1172 17.2024 16.3321C17.2024 16.5469 17.3468 16.721 17.5249 16.721Z" fill="black"/>
<path d="M20.7501 14.776H16.2346V21H18.8149V14.9032" stroke="black" stroke-width="0.5" stroke-linecap="round" stroke-linejoin="round"/>
<path d="M18.8152 20.222V14.9033" stroke="black" stroke-width="0.5" stroke-linecap="round" stroke-linejoin="round"/>
<path d="M20.7504 20.222H18.8152" stroke="black" stroke-width="0.5" stroke-linecap="round" stroke-linejoin="round"/>
<path d="M14.2996 10.4971C16.0809 10.4971 17.5249 8.75547 17.5249 6.6071C17.5249 4.45872 16.0809 2.71712 14.2996 2.71712C12.5183 2.71712 11.0742 4.45872 11.0742 6.6071C11.0742 8.75547 12.5183 10.4971 14.2996 10.4971Z" stroke="black" stroke-width="0.5" stroke-linecap="round" stroke-linejoin="round"/>
<path d="M15.5898 4.66211L13.0095 8.55209" stroke="black" stroke-width="0.5" stroke-linecap="round" stroke-linejoin="round"/>
<path d="M13.1706 5.8291C13.4378 5.8291 13.6544 5.56786 13.6544 5.24561C13.6544 4.92335 13.4378 4.66211 13.1706 4.66211C12.9034 4.66211 12.6868 4.92335 12.6868 5.24561C12.6868 5.56786 12.9034 5.8291 13.1706 5.8291Z" stroke="black" stroke-width="0.5" stroke-linecap="round" stroke-linejoin="round"/>
<path d="M15.4284 8.55208C15.6956 8.55208 15.9122 8.29084 15.9122 7.96858C15.9122 7.64633 15.6956 7.38509 15.4284 7.38509C15.1612 7.38509 14.9446 7.64633 14.9446 7.96858C14.9446 8.29084 15.1612 8.55208 15.4284 8.55208Z" stroke="black" stroke-width="0.5" stroke-linecap="round" stroke-linejoin="round"/>
</svg>
