<svg width="58" height="58" viewBox="0 0 58 58" fill="none" xmlns="http://www.w3.org/2000/svg">
<path d="M20.5417 29H29V16.9167M7.25 29C7.25 31.8563 7.81258 34.6845 8.90562 37.3234C9.99866 39.9622 11.6008 42.3599 13.6204 44.3796C15.6401 46.3992 18.0378 48.0013 20.6766 49.0944C23.3155 50.1874 26.1438 50.75 29 50.75C31.8563 50.75 34.6845 50.1874 37.3234 49.0944C39.9622 48.0013 42.3599 46.3992 44.3796 44.3796C46.3992 42.3599 48.0013 39.9622 49.0944 37.3234C50.1874 34.6845 50.75 31.8563 50.75 29C50.75 26.1438 50.1874 23.3155 49.0944 20.6766C48.0013 18.0378 46.3992 15.6401 44.3796 13.6204C42.3599 11.6008 39.9622 9.99866 37.3234 8.90562C34.6845 7.81258 31.8563 7.25 29 7.25C26.1438 7.25 23.3155 7.81258 20.6766 8.90562C18.0378 9.99866 15.6401 11.6008 13.6204 13.6204C11.6008 15.6401 9.99866 18.0378 8.90562 20.6766C7.81258 23.3155 7.25 26.1438 7.25 29Z" stroke="white" stroke-width="2" stroke-linecap="round" stroke-linejoin="round"/>
</svg>
