<svg width="16" height="15" viewBox="0 0 16 15" fill="none" xmlns="http://www.w3.org/2000/svg">
<g clip-path="url(#clip0_249_1077)">
<path d="M5.90649 8.91656C5.97774 9.81094 6.68462 10.5075 7.95212 10.59V11.25H8.51462V10.5853C9.82712 10.4934 10.594 9.79219 10.594 8.77406C10.594 7.84875 10.0071 7.37156 8.95806 7.12406L8.51462 7.01906V5.22188C9.07712 5.28563 9.43524 5.59313 9.52149 6.01875H10.5077C10.4365 5.15719 9.69774 4.48312 8.51462 4.41V3.75H7.95212V4.42406C6.83181 4.53375 6.06774 5.20781 6.06774 6.16125C6.06774 7.005 6.63587 7.54125 7.57993 7.76156L7.95212 7.85344V9.76031C7.37556 9.67313 6.99399 9.35719 6.90774 8.91656H5.90649ZM7.94743 6.88594C7.39431 6.7575 7.09431 6.49594 7.09431 6.10219C7.09431 5.66156 7.41774 5.33156 7.95212 5.235V6.885L7.94743 6.88594ZM8.59618 8.00437C9.26837 8.16 9.57868 8.41219 9.57868 8.8575C9.57868 9.36562 9.19243 9.71438 8.51462 9.77813V7.98562L8.59618 8.00437Z" fill="#FFC51E"/>
<path d="M8.25024 14.0625C6.50976 14.0625 4.84056 13.3711 3.60986 12.1404C2.37915 10.9097 1.68774 9.24048 1.68774 7.5C1.68774 5.75952 2.37915 4.09032 3.60986 2.85961C4.84056 1.6289 6.50976 0.9375 8.25024 0.9375C9.99073 0.9375 11.6599 1.6289 12.8906 2.85961C14.1213 4.09032 14.8127 5.75952 14.8127 7.5C14.8127 9.24048 14.1213 10.9097 12.8906 12.1404C11.6599 13.3711 9.99073 14.0625 8.25024 14.0625ZM8.25024 15C10.2394 15 12.147 14.2098 13.5535 12.8033C14.9601 11.3968 15.7502 9.48912 15.7502 7.5C15.7502 5.51088 14.9601 3.60322 13.5535 2.1967C12.147 0.790176 10.2394 0 8.25024 0C6.26112 0 4.35347 0.790176 2.94694 2.1967C1.54042 3.60322 0.750244 5.51088 0.750244 7.5C0.750244 9.48912 1.54042 11.3968 2.94694 12.8033C4.35347 14.2098 6.26112 15 8.25024 15Z" fill="#4E4E4E"/>
<path d="M8.25024 12.6562C6.88272 12.6562 5.57121 12.113 4.60422 11.146C3.63724 10.179 3.09399 8.86752 3.09399 7.5C3.09399 6.13248 3.63724 4.82097 4.60422 3.85398C5.57121 2.887 6.88272 2.34375 8.25024 2.34375C9.61777 2.34375 10.9293 2.887 11.8963 3.85398C12.8632 4.82097 13.4065 6.13248 13.4065 7.5C13.4065 8.86752 12.8632 10.179 11.8963 11.146C10.9293 12.113 9.61777 12.6562 8.25024 12.6562ZM8.25024 13.125C8.98893 13.125 9.72038 12.9795 10.4028 12.6968C11.0853 12.4141 11.7054 11.9998 12.2277 11.4775C12.75 10.9551 13.1644 10.3351 13.4471 9.65259C13.7297 8.97014 13.8752 8.23869 13.8752 7.5C13.8752 6.76131 13.7297 6.02986 13.4471 5.34741C13.1644 4.66495 12.75 4.04485 12.2277 3.52252C11.7054 3.00019 11.0853 2.58586 10.4028 2.30318C9.72038 2.02049 8.98893 1.875 8.25024 1.875C6.7584 1.875 5.32766 2.46763 4.27277 3.52252C3.21788 4.57742 2.62524 6.00816 2.62524 7.5C2.62524 8.99184 3.21788 10.4226 4.27277 11.4775C5.32766 12.5324 6.7584 13.125 8.25024 13.125Z" fill="#4E4E4E"/>
</g>
<defs>
<clipPath id="clip0_249_1077">
<rect width="15" height="15" fill="white" transform="translate(0.750244)"/>
</clipPath>
</defs>
</svg>
