<svg width="21" height="21" viewBox="0 0 21 21" fill="none" xmlns="http://www.w3.org/2000/svg">
<path d="M9.18774 4.5625V4.875H12.3127V4.5625C12.3127 4.1481 12.1481 3.75067 11.8551 3.45765C11.5621 3.16462 11.1646 3 10.7502 3C10.3358 3 9.93842 3.16462 9.64539 3.45765C9.35236 3.75067 9.18774 4.1481 9.18774 4.5625ZM7.93774 4.875V4.5625C7.93774 3.81658 8.23406 3.10121 8.76151 2.57376C9.28895 2.04632 10.0043 1.75 10.7502 1.75C11.4962 1.75 12.2115 2.04632 12.739 2.57376C13.2664 3.10121 13.5627 3.81658 13.5627 4.5625V4.875H18.2502C18.416 4.875 18.575 4.94085 18.6922 5.05806C18.8094 5.17527 18.8752 5.33424 18.8752 5.5C18.8752 5.66576 18.8094 5.82473 18.6922 5.94194C18.575 6.05915 18.416 6.125 18.2502 6.125H17.3077L16.1252 16.48C16.038 17.2426 15.6732 17.9465 15.1003 18.4573C14.5275 18.9682 13.7866 19.2504 13.019 19.25H8.48149C7.71391 19.2504 6.97304 18.9682 6.40015 18.4573C5.82727 17.9465 5.46244 17.2426 5.37524 16.48L4.19274 6.125H3.25024C3.08448 6.125 2.92551 6.05915 2.8083 5.94194C2.69109 5.82473 2.62524 5.66576 2.62524 5.5C2.62524 5.33424 2.69109 5.17527 2.8083 5.05806C2.92551 4.94085 3.08448 4.875 3.25024 4.875H7.93774ZM6.61774 16.3375C6.66992 16.7949 6.88859 17.2172 7.23207 17.5238C7.57555 17.8304 8.01983 17.9999 8.48024 18H13.0196C13.48 17.9999 13.9243 17.8304 14.2678 17.5238C14.6113 17.2172 14.8299 16.7949 14.8821 16.3375L16.0502 6.125H5.45087L6.61774 16.3375ZM8.87524 8.3125C9.041 8.3125 9.19998 8.37835 9.31719 8.49556C9.4344 8.61277 9.50024 8.77174 9.50024 8.9375V15.1875C9.50024 15.3533 9.4344 15.5122 9.31719 15.6294C9.19998 15.7467 9.041 15.8125 8.87524 15.8125C8.70948 15.8125 8.55051 15.7467 8.4333 15.6294C8.31609 15.5122 8.25024 15.3533 8.25024 15.1875V8.9375C8.25024 8.77174 8.31609 8.61277 8.4333 8.49556C8.55051 8.37835 8.70948 8.3125 8.87524 8.3125ZM13.2502 8.9375C13.2502 8.77174 13.1844 8.61277 13.0672 8.49556C12.95 8.37835 12.791 8.3125 12.6252 8.3125C12.4595 8.3125 12.3005 8.37835 12.1833 8.49556C12.0661 8.61277 12.0002 8.77174 12.0002 8.9375V15.1875C12.0002 15.3533 12.0661 15.5122 12.1833 15.6294C12.3005 15.7467 12.4595 15.8125 12.6252 15.8125C12.791 15.8125 12.95 15.7467 13.0672 15.6294C13.1844 15.5122 13.2502 15.3533 13.2502 15.1875V8.9375Z" fill="black"/>
</svg>
