<svg width="21" height="21" viewBox="0 0 21 21" fill="none" xmlns="http://www.w3.org/2000/svg">
<path fill-rule="evenodd" clip-rule="evenodd" d="M18.6293 5.01333C18.7085 5.13351 18.7438 5.27732 18.7292 5.42049C18.7146 5.56366 18.6511 5.69741 18.5493 5.79917L10.8885 13.4592C10.8101 13.5375 10.7123 13.5936 10.6052 13.6217L7.41432 14.455C7.30885 14.4825 7.19801 14.482 7.09282 14.4534C6.98762 14.4248 6.89173 14.3693 6.81465 14.2922C6.73757 14.2151 6.68199 14.1192 6.65343 14.014C6.62487 13.9088 6.62431 13.798 6.65182 13.6925L7.48516 10.5025C7.51007 10.407 7.5559 10.3182 7.61932 10.2425L15.3085 2.55833C15.4257 2.44129 15.5845 2.37555 15.7502 2.37555C15.9158 2.37555 16.0746 2.44129 16.1918 2.55833L18.5493 4.915C18.5784 4.9457 18.6052 4.97857 18.6293 5.01333ZM17.2235 5.35667L15.7502 3.88417L8.65182 10.9825L8.13099 12.9767L10.1252 12.4558L17.2235 5.35667Z" fill="black"/>
<path d="M17.1177 14.8C17.3454 12.8533 17.4182 10.8916 17.3352 8.93334C17.3332 8.88718 17.3409 8.84113 17.3577 8.79809C17.3744 8.75505 17.4 8.71598 17.4327 8.68334L18.2527 7.86334C18.2751 7.8408 18.3035 7.82522 18.3346 7.81846C18.3656 7.8117 18.398 7.81404 18.4277 7.82522C18.4575 7.8364 18.4833 7.85593 18.5023 7.88146C18.5212 7.907 18.5323 7.93746 18.5343 7.96917C18.6883 10.2952 18.6297 12.6304 18.3593 14.9458C18.1627 16.6308 16.8093 17.9517 15.1318 18.1392C12.2196 18.4615 9.28073 18.4615 6.36851 18.1392C4.69184 17.9517 3.33767 16.6308 3.14101 14.9458C2.7961 11.992 2.7961 9.00802 3.14101 6.05417C3.33767 4.36917 4.69101 3.04834 6.36851 2.86084C8.57888 2.61671 10.8058 2.55734 13.026 2.68334C13.0578 2.68562 13.0882 2.69696 13.1138 2.71601C13.1393 2.73507 13.1588 2.76104 13.17 2.79085C13.1813 2.82067 13.1837 2.85307 13.1771 2.88423C13.1705 2.91539 13.1551 2.944 13.1327 2.96667L12.3052 3.79334C12.2728 3.82571 12.2342 3.85107 12.1916 3.86785C12.149 3.88462 12.1034 3.89245 12.0577 3.89084C10.205 3.82738 8.3501 3.8984 6.50767 4.10334C5.96929 4.16293 5.46672 4.40227 5.08114 4.78271C4.69555 5.16315 4.44948 5.66247 4.38267 6.2C4.04839 9.05692 4.04839 11.9431 4.38267 14.8C4.44948 15.3375 4.69555 15.8369 5.08114 16.2173C5.46672 16.5977 5.96929 16.8371 6.50767 16.8967C9.30351 17.2092 12.1968 17.2092 14.9935 16.8967C15.5319 16.8371 16.0345 16.5977 16.42 16.2173C16.8056 15.8369 17.0509 15.3375 17.1177 14.8Z" fill="black"/>
</svg>
