<svg width="14" height="15" viewBox="0 0 14 15" fill="none" xmlns="http://www.w3.org/2000/svg">
<path d="M6.99999 13.9762C10.5767 13.9762 13.4762 11.0767 13.4762 7.49999C13.4762 3.92329 10.5767 1.0238 6.99999 1.0238C3.42329 1.0238 0.523804 3.92329 0.523804 7.49999C0.523804 11.0767 3.42329 13.9762 6.99999 13.9762Z" stroke="black" stroke-linecap="round" stroke-linejoin="round"/>
<path d="M4.97618 6.2857C5.42327 6.2857 5.7857 5.92327 5.7857 5.47618C5.7857 5.02909 5.42327 4.66666 4.97618 4.66666C4.52909 4.66666 4.16666 5.02909 4.16666 5.47618C4.16666 5.92327 4.52909 6.2857 4.97618 6.2857Z" fill="black"/>
<path d="M9.02382 6.2857C9.47091 6.2857 9.83334 5.92327 9.83334 5.47618C9.83334 5.02909 9.47091 4.66666 9.02382 4.66666C8.57673 4.66666 8.21429 5.02909 8.21429 5.47618C8.21429 5.92327 8.57673 6.2857 9.02382 6.2857Z" fill="black"/>
<path d="M4.57141 8.30952C5.05955 9.38862 5.86908 9.92857 6.99998 9.92857C8.13089 9.92857 8.94041 9.38862 9.42855 8.30952" stroke="black" stroke-linecap="round" stroke-linejoin="round"/>
</svg>
