<svg width="17" height="16" viewBox="0 0 17 16" fill="none" xmlns="http://www.w3.org/2000/svg">
<path d="M8.75024 15C4.89024 15 1.75024 11.86 1.75024 8C1.75024 4.14 4.89024 1 8.75024 1C12.6102 1 15.7502 4.14 15.7502 8C15.7502 11.86 12.6102 15 8.75024 15ZM8.75024 2C5.44024 2 2.75024 4.69 2.75024 8C2.75024 11.31 5.44024 14 8.75024 14C12.0602 14 14.7502 11.31 14.7502 8C14.7502 4.69 12.0602 2 8.75024 2Z" fill="#555555"/>
<path d="M8.75024 4.5C7.64024 4.5 6.75024 5.39 6.75024 6.5H7.75024C7.75024 5.95 8.20024 5.5 8.75024 5.5C9.30024 5.5 9.75024 5.95 9.75024 6.5C9.75024 7.5 8.25024 7.38 8.25024 9H9.25024C9.25024 7.88 10.7502 7.75 10.7502 6.5C10.7502 5.39 9.86024 4.5 8.75024 4.5Z" fill="#555555"/>
<path d="M8.75013 11.62C9.09254 11.62 9.37013 11.3424 9.37013 11C9.37013 10.6576 9.09254 10.38 8.75013 10.38C8.40771 10.38 8.13013 10.6576 8.13013 11C8.13013 11.3424 8.40771 11.62 8.75013 11.62Z" fill="#555555"/>
<path d="M7.25024 7C7.52639 7 7.75024 6.77614 7.75024 6.5C7.75024 6.22386 7.52639 6 7.25024 6C6.9741 6 6.75024 6.22386 6.75024 6.5C6.75024 6.77614 6.9741 7 7.25024 7Z" fill="#555555"/>
<path d="M8.75024 9.5C9.02639 9.5 9.25024 9.27614 9.25024 9C9.25024 8.72386 9.02639 8.5 8.75024 8.5C8.4741 8.5 8.25024 8.72386 8.25024 9C8.25024 9.27614 8.4741 9.5 8.75024 9.5Z" fill="#555555"/>
</svg>
