<svg width="33" height="33" viewBox="0 0 33 33" fill="none" xmlns="http://www.w3.org/2000/svg">
<path d="M27.363 32.0186H18.6632C18.5163 32.0186 18.3755 31.959 18.2716 31.8529C18.1678 31.7469 18.1096 31.603 18.1096 31.453V22.5205H14.1915V31.4343C14.1915 31.5843 14.1333 31.7282 14.0295 31.8343C13.9256 31.9404 13.7848 32 13.6379 32H4.97461C4.82778 32 4.68691 31.9404 4.58308 31.8343C4.47926 31.7282 4.42104 31.5843 4.42104 31.4343V14.6884H0.551678C0.438803 14.688 0.32883 14.6523 0.236349 14.5862C0.143867 14.5201 0.0732513 14.4267 0.034199 14.3184C-0.00485333 14.2102 -0.010615 14.0924 0.0177122 13.9808C0.0460393 13.8691 0.107093 13.769 0.192681 13.6938L5.01724 9.50427V3.28826C5.01642 3.21375 5.0301 3.1398 5.05764 3.07079C5.08517 3.00179 5.12593 2.9391 5.1775 2.88641C5.22907 2.83371 5.29043 2.79207 5.35797 2.76394C5.4255 2.73581 5.49788 2.72175 5.57081 2.72258H9.05681C9.12923 2.72258 9.2009 2.73726 9.26773 2.76576C9.33456 2.79426 9.39519 2.83604 9.44611 2.88865C9.49704 2.94125 9.53733 3.00364 9.56449 3.07223C9.59165 3.14083 9.60525 3.21427 9.60444 3.28826V5.53845L15.8099 0.149149C15.91 0.0620076 16.0372 0.0141602 16.1687 0.0141602C16.3003 0.0141602 16.4276 0.0620076 16.5277 0.149149L32.1448 13.7125C32.2315 13.7862 32.2939 13.8855 32.3233 13.9967C32.3527 14.108 32.3477 14.2258 32.3091 14.3341C32.2687 14.4428 32.1971 14.5366 32.1038 14.6031C32.0105 14.6696 31.8997 14.7059 31.7859 14.7071H27.9166V31.453C27.9166 31.603 27.8582 31.7469 27.7544 31.8529C27.6506 31.959 27.5098 32.0186 27.363 32.0186ZM19.235 30.8873H26.8093V14.1228C26.8093 13.9727 26.8677 13.8288 26.9715 13.7228C27.0753 13.6167 27.2162 13.5571 27.363 13.5571H30.2833L16.1687 1.30535L9.40972 7.1546C9.32766 7.22813 9.2264 7.27557 9.11831 7.29103C9.01021 7.30649 8.90001 7.28932 8.80134 7.24163C8.70595 7.19541 8.62539 7.12225 8.56934 7.03084C8.51329 6.93943 8.48407 6.83356 8.48497 6.72569V3.81661H6.10017V9.75288C6.10163 9.83477 6.08473 9.91594 6.05101 9.99023C6.01728 10.0645 5.96757 10.13 5.90545 10.1818L2.03609 13.5447H4.95634C5.10317 13.5447 5.24404 13.6042 5.34787 13.7103C5.45169 13.8164 5.50991 13.9603 5.50991 14.1103V30.8562H13.0844V21.9549C13.0844 21.8809 13.0986 21.8077 13.1265 21.7394C13.1544 21.6711 13.1954 21.6091 13.2469 21.5571C13.2983 21.5051 13.3594 21.464 13.4266 21.4363C13.4937 21.4085 13.5655 21.3946 13.6379 21.3955H18.6632C18.7356 21.3946 18.8074 21.4085 18.8745 21.4363C18.9416 21.464 19.0027 21.5051 19.0542 21.5571C19.1057 21.6091 19.1466 21.6711 19.1745 21.7394C19.2024 21.8077 19.2167 21.8809 19.2167 21.9549L19.235 30.8873Z" fill="black"/>
</svg>
