<svg width="16" height="15" viewBox="0 0 16 15" fill="none" xmlns="http://www.w3.org/2000/svg">
<path d="M8.24274 0C4.10274 0 0.750244 3.36 0.750244 7.5C0.750244 11.64 4.10274 15 8.24274 15C12.3902 15 15.7502 11.64 15.7502 7.5C15.7502 3.36 12.3902 0 8.24274 0ZM13.4402 4.5H11.2277C10.993 3.57109 10.6454 2.67442 10.1927 1.83C11.5608 2.301 12.7136 3.24879 13.4402 4.5ZM8.25024 1.53C8.87274 2.43 9.36024 3.4275 9.68274 4.5H6.81774C7.14024 3.4275 7.62774 2.43 8.25024 1.53ZM2.44524 9C2.32524 8.52 2.25024 8.0175 2.25024 7.5C2.25024 6.9825 2.32524 6.48 2.44524 6H4.98024C4.92024 6.495 4.87524 6.99 4.87524 7.5C4.87524 8.01 4.92024 8.505 4.98024 9H2.44524ZM3.06024 10.5H5.27274C5.51274 11.4375 5.85774 12.3375 6.30774 13.17C4.93822 12.7016 3.78462 11.7531 3.06024 10.5ZM5.27274 4.5H3.06024C3.78462 3.24688 4.93822 2.29843 6.30774 1.83C5.85506 2.67442 5.50748 3.57109 5.27274 4.5ZM8.25024 13.47C7.62774 12.57 7.14024 11.5725 6.81774 10.5H9.68274C9.36024 11.5725 8.87274 12.57 8.25024 13.47ZM10.0052 9H6.49524C6.42774 8.505 6.37524 8.01 6.37524 7.5C6.37524 6.99 6.42774 6.4875 6.49524 6H10.0052C10.0727 6.4875 10.1252 6.99 10.1252 7.5C10.1252 8.01 10.0727 8.505 10.0052 9ZM10.1927 13.17C10.6427 12.3375 10.9877 11.4375 11.2277 10.5H13.4402C12.7136 11.7512 11.5608 12.699 10.1927 13.17ZM11.5202 9C11.5802 8.505 11.6252 8.01 11.6252 7.5C11.6252 6.99 11.5802 6.495 11.5202 6H14.0552C14.1752 6.48 14.2502 6.9825 14.2502 7.5C14.2502 8.0175 14.1752 8.52 14.0552 9H11.5202Z" fill="#4E4E4E"/>
</svg>
