<svg width="21" height="20" viewBox="0 0 21 20" fill="none" xmlns="http://www.w3.org/2000/svg">
<path d="M18.2002 14.1667H17.4169V8.33333C17.4169 4.65144 14.4321 1.66667 10.7502 1.66667C7.06831 1.66667 4.08354 4.65144 4.08354 8.33333V14.1667H3.34188C2.88164 14.1667 2.50854 14.5398 2.50854 15C2.50854 15.4602 2.88164 15.8333 3.34188 15.8333H18.2002C18.6604 15.8333 19.0335 15.4602 19.0335 15C19.0335 14.5398 18.6604 14.1667 18.2002 14.1667Z" fill="black"/>
<path d="M10.7501 18.3333C11.807 18.3304 12.7479 17.6631 13.1001 16.6667H8.40015C8.75244 17.6631 9.69327 18.3304 10.7501 18.3333Z" fill="black"/>
<circle cx="17.5027" cy="6.75256" r="3" fill="#F72E2E"/>
</svg>
