<svg width="24" height="31" viewBox="0 0 24 31" fill="none" xmlns="http://www.w3.org/2000/svg">
<g clip-path="url(#clip0_249_1267)">
<path d="M6.0339 6.1068H0.803827C0.713037 6.10612 0.624469 6.0789 0.549197 6.02865C0.473926 5.9784 0.415293 5.90731 0.380641 5.82425C0.34599 5.74119 0.336861 5.64986 0.354386 5.56168C0.371911 5.47351 0.415305 5.39241 0.479162 5.32853L5.70923 0.146968C5.77379 0.081636 5.85706 0.0374612 5.94776 0.0204035C6.03847 0.00334581 6.13224 0.0141935 6.21651 0.0515391C6.30104 0.0856712 6.37325 0.14411 6.42389 0.219291C6.47453 0.294472 6.50129 0.382925 6.50062 0.473279V5.64485C6.50129 5.7057 6.48965 5.76606 6.46643 5.82241C6.44322 5.87876 6.40891 5.92997 6.36544 5.973C6.32196 6.01603 6.27022 6.04999 6.21329 6.07297C6.15636 6.09594 6.09537 6.10747 6.0339 6.1068ZM1.9148 5.19296H5.57226V1.57289L1.9148 5.19296Z" fill="#FF6E75"/>
<path d="M22.8805 30.0164H0.803742C0.681312 30.0164 0.563914 29.9682 0.477342 29.8826C0.390771 29.7969 0.342163 29.6807 0.342163 29.5595V5.64486C0.343094 5.52403 0.392289 5.40848 0.479076 5.32351L5.70915 0.141946C5.75191 0.100096 5.8026 0.0670197 5.85832 0.044617C5.91403 0.0222143 5.97368 0.0109214 6.03381 0.0113975H22.8805C23.0029 0.0113975 23.1203 0.0595087 23.2069 0.145195C23.2935 0.230881 23.3421 0.347079 23.3421 0.468257V29.5545C23.3428 29.6149 23.3314 29.6749 23.3085 29.7309C23.2856 29.7869 23.2517 29.8378 23.2088 29.8808C23.1658 29.9237 23.1147 29.9578 23.0583 29.9811C23.002 30.0044 22.9416 30.0164 22.8805 30.0164ZM1.26538 29.1026H22.4189V0.925178H6.22658L1.26538 5.83565V29.1026Z" fill="#FF6E75"/>
<path d="M18.8882 9.69173H8.96079C8.90016 9.69173 8.84012 9.67988 8.78412 9.65692C8.72811 9.63396 8.67719 9.6003 8.63432 9.55788C8.59146 9.51545 8.55745 9.46511 8.53426 9.40968C8.51106 9.35424 8.49915 9.29482 8.49915 9.23481C8.49915 9.17481 8.51106 9.11539 8.53426 9.05995C8.55745 9.00452 8.59146 8.95418 8.63432 8.91175C8.67719 8.86932 8.72811 8.83567 8.78412 8.81271C8.84012 8.78974 8.90016 8.77789 8.96079 8.77789H18.8882C18.9488 8.77789 19.0089 8.78974 19.0649 8.81271C19.1209 8.83567 19.1717 8.86932 19.2146 8.91175C19.2575 8.95418 19.2915 9.00452 19.3147 9.05995C19.3379 9.11539 19.3498 9.17481 19.3498 9.23481C19.3498 9.29482 19.3379 9.35424 19.3147 9.40968C19.2915 9.46511 19.2575 9.51545 19.2146 9.55788C19.1717 9.6003 19.1209 9.63396 19.0649 9.65692C19.0089 9.67988 18.9488 9.69173 18.8882 9.69173Z" fill="#FF6E75"/>
<path d="M18.8883 14.8683H4.82146C4.75712 14.875 4.69209 14.8682 4.63055 14.8484C4.56902 14.8286 4.51237 14.7963 4.46429 14.7535C4.41621 14.7106 4.37778 14.6583 4.35146 14.5998C4.32515 14.5413 4.31152 14.4779 4.31152 14.4139C4.31152 14.3498 4.32515 14.2865 4.35146 14.228C4.37778 14.1695 4.41621 14.1172 4.46429 14.0743C4.51237 14.0315 4.56902 13.9991 4.63055 13.9793C4.69209 13.9595 4.75712 13.9528 4.82146 13.9595H18.9137C18.978 13.9528 19.043 13.9595 19.1046 13.9793C19.1661 13.9991 19.2228 14.0315 19.2708 14.0743C19.3189 14.1172 19.3574 14.1695 19.3837 14.228C19.41 14.2865 19.4236 14.3498 19.4236 14.4139C19.4236 14.4779 19.41 14.5413 19.3837 14.5998C19.3574 14.6583 19.3189 14.7106 19.2708 14.7535C19.2228 14.7963 19.1661 14.8286 19.1046 14.8484C19.043 14.8682 18.978 14.875 18.9137 14.8683H18.8883Z" fill="#FF6E75"/>
<path d="M18.8883 20.0498H4.82146C4.75712 20.0565 4.69209 20.0498 4.63055 20.03C4.56902 20.0102 4.51237 19.9779 4.46429 19.935C4.41621 19.8922 4.37778 19.8398 4.35146 19.7813C4.32515 19.7228 4.31152 19.6595 4.31152 19.5955C4.31152 19.5314 4.32515 19.4681 4.35146 19.4096C4.37778 19.3511 4.41621 19.2987 4.46429 19.2559C4.51237 19.213 4.56902 19.1807 4.63055 19.1609C4.69209 19.1411 4.75712 19.1344 4.82146 19.1411H18.9137C18.978 19.1344 19.043 19.1411 19.1046 19.1609C19.1661 19.1807 19.2228 19.213 19.2708 19.2559C19.3189 19.2987 19.3574 19.3511 19.3837 19.4096C19.41 19.4681 19.4236 19.5314 19.4236 19.5955C19.4236 19.6595 19.41 19.7228 19.3837 19.7813C19.3574 19.8398 19.3189 19.8922 19.2708 19.935C19.2228 19.9779 19.1661 20.0102 19.1046 20.03C19.043 20.0498 18.978 20.0565 18.9137 20.0498H18.8883Z" fill="#FF6E75"/>
<path d="M13.7749 25.2264H4.82146C4.75712 25.2331 4.69209 25.2263 4.63055 25.2066C4.56902 25.1868 4.51237 25.1545 4.46429 25.1116C4.41621 25.0688 4.37778 25.0164 4.35146 24.9579C4.32515 24.8994 4.31152 24.836 4.31152 24.772C4.31152 24.708 4.32515 24.6447 4.35146 24.5862C4.37778 24.5277 4.41621 24.4753 4.46429 24.4325C4.51237 24.3896 4.56902 24.3572 4.63055 24.3375C4.69209 24.3177 4.75712 24.3109 4.82146 24.3176H13.8003C13.8646 24.3109 13.9297 24.3177 13.9912 24.3375C14.0528 24.3572 14.1094 24.3896 14.1575 24.4325C14.2056 24.4753 14.244 24.5277 14.2703 24.5862C14.2966 24.6447 14.3103 24.708 14.3103 24.772C14.3103 24.836 14.2966 24.8994 14.2703 24.9579C14.244 25.0164 14.2056 25.0688 14.1575 25.1116C14.1094 25.1545 14.0528 25.1868 13.9912 25.2066C13.9297 25.2263 13.8646 25.2331 13.8003 25.2264H13.7749Z" fill="#FF6E75"/>
</g>
<defs>
<clipPath id="clip0_249_1267">
<rect width="23" height="30" fill="white" transform="translate(0.342163 0.0163879)"/>
</clipPath>
</defs>
</svg>
