<svg width="33" height="33" viewBox="0 0 33 33" fill="none" xmlns="http://www.w3.org/2000/svg">
<g clip-path="url(#clip0_249_869)">
<rect width="32" height="32" transform="translate(0.342285 0.0163879)" fill="white"/>
<path d="M24.9852 7.1275C24.9852 10.6691 21.2399 13.7386 16.3423 13.7386C11.4448 13.7386 7.69946 10.6691 7.69946 7.1275C7.69946 3.58594 11.4448 0.516388 16.3423 0.516388C21.2399 0.516388 24.9852 3.58594 24.9852 7.1275Z" stroke="#FF6E75"/>
<path d="M31.8423 24.9053V26.6831C31.8423 27.9186 31.212 29.1379 30.0269 30.0596C28.8389 30.9836 27.2062 31.5164 25.4851 31.5164H7.19943C5.47834 31.5164 3.84567 30.9836 2.65767 30.0596C1.47259 29.1379 0.842285 27.9186 0.842285 26.6831V24.9053C0.842285 22.7268 1.95422 20.6031 3.99661 19.0146C6.04191 17.4238 8.83735 16.5164 11.7709 16.5164H20.9137C23.8472 16.5164 26.6427 17.4238 28.688 19.0146C30.7303 20.6031 31.8423 22.7268 31.8423 24.9053Z" stroke="#FF6E75"/>
</g>
<defs>
<clipPath id="clip0_249_869">
<rect width="32" height="32" fill="white" transform="translate(0.342285 0.0163879)"/>
</clipPath>
</defs>
</svg>
