<svg width="26" height="26" viewBox="0 0 26 26" fill="none" xmlns="http://www.w3.org/2000/svg">
<path d="M5.16879 1V3.63676H1V6.21829C1 10.5393 2.14365 12.9482 4.8921 14.4461C5.91389 15.0628 6.85697 15.8313 7.6959 16.7308C8.37018 17.5382 9.19253 18.1717 10.1062 18.5876L11.1453 18.9465V22.0733H9.55894C7.64056 22.0733 6.99495 22.5634 6.99495 24.0198V25H18.9848V24.1234C18.9848 22.6946 18.1978 22.0526 16.3778 22.0526H14.8345V18.9465L15.8921 18.5945C16.807 18.1782 17.6297 17.5421 18.3023 16.7308C19.1775 15.7944 20.1572 14.9893 21.2168 14.3356C22.0396 13.8912 22.7743 13.2656 23.3775 12.496C23.9806 11.7264 24.4398 10.8286 24.7277 9.85591C24.9234 8.65154 25.014 7.42861 24.9982 6.20449V3.64366H20.811V1H5.16879ZM12.9899 5.39689L14.2504 8.32356H17.2878L14.9083 10.7877L15.5908 13.9353L12.9899 12.3684L10.389 13.956L11.0715 10.8085L8.68583 8.34426H11.7294L12.9899 5.39689ZM3.18892 6.27351H5.1319V11.7127C4.929 11.8507 4.29568 11.0224 3.83453 10.0768C3.57272 9.35281 3.40499 8.59034 3.33649 7.81277L3.18892 6.27351ZM20.8479 6.27351H22.963L22.7847 7.79206C22.7428 9.05617 22.2901 10.2593 21.5119 11.1743C21.3289 11.4543 21.0966 11.6893 20.8294 11.8645L20.8479 6.27351Z" stroke="#FFC51E" stroke-linecap="round" stroke-linejoin="round"/>
</svg>
