<svg width="33" height="33" viewBox="0 0 33 33" fill="none" xmlns="http://www.w3.org/2000/svg">
<g clip-path="url(#clip0_249_3029)">
<path d="M13.3431 25.9495C10.769 25.9495 8.25274 25.1886 6.11254 23.7632C3.97234 22.3378 2.30436 20.3118 1.31959 17.9416C0.334815 15.5713 0.0774648 12.9632 0.580109 10.4472C1.08275 7.93112 2.32279 5.62014 4.1434 3.80654C5.96401 1.99295 8.28339 0.758172 10.8082 0.258448C13.333 -0.241277 15.9498 0.0164936 18.3276 0.999112C20.7054 1.98173 22.7374 3.64507 24.1665 5.77876C25.5957 7.91245 26.3578 10.4207 26.3566 12.9861C26.3532 16.4243 24.9809 19.7205 22.5409 22.1511C20.101 24.5816 16.7929 25.9478 13.3431 25.9495ZM13.3431 1.16895C10.998 1.16895 8.70556 1.86201 6.75568 3.1605C4.80581 4.45898 3.28608 6.30459 2.38865 8.46389C1.49122 10.6232 1.25639 12.9992 1.7139 15.2915C2.1714 17.5838 3.30066 19.6894 4.95889 21.3421C6.61713 22.9947 8.72987 24.1202 11.0299 24.5762C13.3299 25.0321 15.714 24.7981 17.8806 23.9037C20.0472 23.0093 21.899 21.4947 23.2018 19.5514C24.5047 17.608 25.2001 15.3233 25.2001 12.9861C25.1967 9.85304 23.9465 6.84921 21.7236 4.63379C19.5007 2.41837 16.4867 1.17231 13.3431 1.16895Z" fill="#FF6E75"/>
<path d="M29.3177 32.0164C28.9197 32.017 28.5255 31.9389 28.158 31.7867C27.7904 31.6345 27.4568 31.4112 27.1763 31.1298L19.799 23.7773C19.7403 23.7179 19.6952 23.6465 19.6668 23.5681C19.6384 23.4896 19.6275 23.4059 19.6347 23.3228C19.642 23.2398 19.6673 23.1592 19.7088 23.0868C19.7503 23.0143 19.8072 22.9518 19.8753 22.9034C21.1642 21.9935 22.2881 20.8713 23.1986 19.585C23.2469 19.5166 23.3098 19.4596 23.3828 19.4181C23.4557 19.3767 23.5369 19.3517 23.6206 19.3451C23.7043 19.3384 23.7885 19.3503 23.8671 19.3797C23.9457 19.4091 24.0168 19.4554 24.0755 19.5153L31.4591 26.8678C31.8801 27.2905 32.1662 27.8279 32.2816 28.4123C32.3971 28.9967 32.3365 29.6021 32.1077 30.1523C31.8788 30.7026 31.4919 31.1731 30.9955 31.5048C30.4991 31.8365 29.9153 32.0144 29.3177 32.0164ZM21.089 23.4354L27.996 30.3192C28.3472 30.6673 28.8224 30.8626 29.3177 30.8626C29.813 30.8626 30.2881 30.6673 30.6394 30.3192C30.983 29.965 31.175 29.4915 31.175 28.9988C31.175 28.5061 30.983 28.0327 30.6394 27.6784L23.7323 20.7946C22.966 21.782 22.0779 22.6693 21.089 23.4354Z" fill="#FF6E75"/>
<path d="M4.59969 13.556C4.44802 13.556 4.30255 13.496 4.1953 13.3891C4.08805 13.2823 4.02783 13.1373 4.02783 12.9861C4.02951 10.5232 5.01105 8.16146 6.75728 6.41873C8.50352 4.67599 10.8719 3.69448 13.3431 3.68945C13.4965 3.68945 13.6436 3.75014 13.752 3.85821C13.8605 3.96629 13.9214 4.11292 13.9214 4.26577C13.9214 4.41861 13.8605 4.56517 13.752 4.67324C13.6436 4.78132 13.4965 4.842 13.3431 4.842C11.1769 4.84535 9.10044 5.70447 7.5687 7.23105C6.03697 8.75764 5.17495 10.8272 5.17159 12.9861C5.17159 13.1373 5.11133 13.2823 5.00408 13.3891C4.89684 13.496 4.75136 13.556 4.59969 13.556Z" fill="#FF6E75"/>
</g>
<defs>
<clipPath id="clip0_249_3029">
<rect width="32" height="32" fill="white" transform="translate(0.342285 0.0163879)"/>
</clipPath>
</defs>
</svg>
