<svg width="25" height="27" viewBox="0 0 25 27" fill="none" xmlns="http://www.w3.org/2000/svg">
<path fill-rule="evenodd" clip-rule="evenodd" d="M19.4798 8.03048C19.0688 7.39638 18.3823 7.01689 17.6484 7.01805H7.3516C6.13301 7.01805 5.14514 8.04823 5.14514 9.31904V16.989C5.14514 18.2598 6.13301 19.29 7.3516 19.29H17.6484C18.867 19.29 19.8549 18.2598 19.8549 16.989V9.31904C19.8559 8.86012 19.7252 8.41138 19.4798 8.03048ZM7.3516 8.55204H17.6484C17.8597 8.55232 18.0606 8.64731 18.2 8.81282L12.5 12.2873L6.80734 8.80515C6.94639 8.64448 7.14406 8.55255 7.3516 8.55204ZM17.6484 17.756C18.0546 17.756 18.3839 17.4126 18.3839 16.989V10.4619L13.2355 13.6066C13.012 13.7417 12.7584 13.8132 12.5 13.8136C12.2423 13.8155 11.9887 13.7467 11.7645 13.6142L6.61612 10.4619V16.989C6.61612 17.4126 6.9454 17.756 7.3516 17.756H17.6484Z" fill="#231F20"/>
</svg>
