<svg width="16" height="18" viewBox="0 0 16 18" fill="none" xmlns="http://www.w3.org/2000/svg">
<path d="M9.00007 1.009C9.00007 0.743786 8.89471 0.489432 8.70718 0.301896C8.51964 0.114359 8.26529 0.00900269 8.00007 0.00900269C7.73485 0.00900269 7.4805 0.114359 7.29296 0.301896C7.10543 0.489432 7.00007 0.743786 7.00007 1.009L6.99707 9.012C6.99707 9.27722 7.10243 9.53157 7.28996 9.71911C7.4775 9.90665 7.73185 10.012 7.99707 10.012C8.26229 10.012 8.51664 9.90665 8.70418 9.71911C8.89171 9.53157 8.99707 9.27722 8.99707 9.012L9.00007 1.009Z" fill="#9F544F"/>
<path d="M0 9.99199C0 7.78199 0.895 5.78199 2.343 4.33499L3.757 5.74899C2.91785 6.58809 2.34636 7.65719 2.11482 8.82108C1.88327 9.98498 2.00207 11.1914 2.45618 12.2878C2.9103 13.3842 3.67933 14.3213 4.66604 14.9806C5.65274 15.6399 6.8128 15.9918 7.9995 15.9918C9.1862 15.9918 10.3463 15.6399 11.333 14.9806C12.3197 14.3213 13.0887 13.3842 13.5428 12.2878C13.9969 11.1914 14.1157 9.98498 13.8842 8.82108C13.6526 7.65719 13.0812 6.58809 12.242 5.74899L13.657 4.33499C14.5872 5.26528 15.2737 6.41062 15.6556 7.66956C16.0374 8.92851 16.1029 10.2622 15.8463 11.5525C15.5896 12.8428 15.0187 14.0499 14.1841 15.0669C13.3495 16.0838 12.2769 16.8793 11.0615 17.3827C9.84607 17.8862 8.52522 18.0821 7.21597 17.9532C5.90671 17.8243 4.64946 17.3744 3.55558 16.6435C2.46169 15.9127 1.56493 14.9233 0.944738 13.7631C0.324541 12.6028 4.79384e-05 11.3076 0 9.99199Z" fill="#9F544F"/>
</svg>
