<svg width="25" height="27" viewBox="0 0 25 27" fill="none" xmlns="http://www.w3.org/2000/svg">
<path fill-rule="evenodd" clip-rule="evenodd" d="M16.1774 9.31904C16.1774 7.20104 14.531 5.48405 12.5 5.48405C10.469 5.48405 8.82258 7.20104 8.82258 9.31904C8.82258 11.437 10.469 13.154 12.5 13.154H11.7645C8.10874 13.154 5.14514 16.2446 5.14514 20.057C5.14514 20.4806 5.47443 20.824 5.88063 20.824H19.1194C19.5256 20.824 19.8549 20.4806 19.8549 20.057C19.8549 16.2446 16.8913 13.154 13.2355 13.154H12.5C13.4753 13.154 14.4107 12.75 15.1004 12.0308C15.79 11.3116 16.1774 10.3361 16.1774 9.31904ZM11.7645 14.688C9.20475 14.6873 7.03328 16.6479 6.6676 19.29H18.3324C17.9667 16.6479 15.7953 14.6873 13.2355 14.688H11.7645ZM10.2936 9.31904C10.2936 10.5898 11.2814 11.62 12.5 11.62C13.0852 11.62 13.6464 11.3776 14.0602 10.9461C14.474 10.5146 14.7065 9.9293 14.7065 9.31904C14.7065 8.04824 13.7186 7.01805 12.5 7.01805C11.2814 7.01805 10.2936 8.04824 10.2936 9.31904Z" fill="#231F20"/>
</svg>
